<svg width="20" height="24" viewBox="0 0 20 24" fill="none" xmlns="http://www.w3.org/2000/svg">
<path fill-rule="evenodd" clip-rule="evenodd" d="M14.2007 11.3717C14.1743 11.5054 14.1101 11.6327 14.0128 11.744C13.9155 11.8553 13.7877 11.9478 13.6389 12.0144C13.3393 12.1677 13.0771 12.2443 12.8118 12.3209C12.2469 12.4754 11.6523 12.63 11.0235 12.8092C10.3602 12.9884 9.76568 13.1676 9.23511 13.2974C8.57345 13.4766 7.94456 13.6312 7.34689 13.8104C6.89722 13.9628 6.47485 14.1614 6.09068 14.4012C5.73338 14.6576 5.42156 14.9512 5.16373 15.2739C4.89844 15.6323 4.73147 16.0946 4.73147 16.6335C4.73147 17.7126 5.0623 18.5333 5.72552 19.0463C6.38717 19.5864 7.61374 19.8423 9.43173 19.8423C11.2856 19.8423 12.5434 19.5605 13.2082 18.9956C13.8683 18.4307 14.1991 17.636 14.1991 16.61V11.3717H14.2007ZM9.43329 0C12.6792 0 15.0621 0.488239 16.5836 1.48944C18.1066 2.46592 18.8681 3.72175 18.8681 5.20995V17.8918C18.8681 18.4048 18.7371 18.9696 18.5061 19.5852C18.272 20.2032 17.8101 20.7669 17.0814 21.2786C16.3869 21.794 15.4272 22.2303 14.2022 22.5641C12.9772 22.8978 11.3886 23.077 9.43485 23.077C7.48421 23.077 5.89249 22.8978 4.66905 22.5641C3.44561 22.2303 2.48433 21.794 1.78991 21.2786C1.1439 20.8175 0.654525 20.2352 0.36672 19.5852C0.132643 18.9709 0 18.406 0 17.8931V15.8659C0 14.7869 0.363599 13.7857 1.09236 12.9118C1.82112 12.0144 2.84637 11.3988 4.17125 11.0132C4.8329 10.834 5.59443 10.6547 6.45428 10.4236C7.31568 10.1912 8.10842 9.96009 8.90428 9.75614C9.70014 9.54972 10.3946 9.3433 10.9891 9.16284C11.3479 9.04913 11.7123 8.94686 12.0815 8.85629L12.6776 8.62515C12.9117 8.52256 13.1411 8.36805 13.3736 8.16287C13.6045 7.95892 13.8027 7.72778 13.9697 7.47068C14.1461 7.19228 14.237 6.88481 14.235 6.57331V5.75134C14.2374 5.45008 14.1576 5.15197 14.0009 4.87745C13.8698 4.56844 13.6045 4.28662 13.2409 4.03076C12.8773 3.77366 12.3795 3.56847 11.785 3.41273C11.1889 3.2607 10.3961 3.18283 9.50039 3.18283C7.6465 3.18283 6.4215 3.46712 5.75985 4.05548C5.19806 4.56967 4.86723 5.21118 4.80169 5.92933C4.80169 6.08384 4.63628 6.18643 4.43653 6.18643L0.399491 6.23834C0.303594 6.23867 0.211415 6.20899 0.143023 6.15574C0.0746309 6.10249 0.0355651 6.03 0.0343312 5.95405V5.21242C0.0343312 4.4918 0.201306 3.82434 0.564905 3.18283C0.930065 2.54008 1.49341 2.0024 2.25338 1.53888C3.01491 1.07784 4.00895 0.693424 5.19962 0.436325C6.35908 0.127313 7.78227 0 9.43641 0H9.43329Z" fill="#FFF0F6"/>
</svg>
