<svg width="20" height="24" viewBox="0 0 20 24" fill="none" xmlns="http://www.w3.org/2000/svg">
<path fill-rule="evenodd" clip-rule="evenodd" d="M14.6911 11.953C14.6648 12.0867 14.6005 12.214 14.5032 12.3253C14.406 12.4366 14.2781 12.5291 14.1293 12.5957C13.8297 12.749 13.5676 12.8256 13.3023 12.9022C12.7374 13.0567 12.1428 13.2113 11.5139 13.3905C10.8507 13.5697 10.2562 13.7489 9.72558 13.8787C9.06393 14.0579 8.43504 14.2125 7.83737 14.3917C7.3877 14.5441 6.96533 14.7427 6.58115 14.9825C6.22386 15.2389 5.91204 15.5325 5.65421 15.8552C5.38892 16.2136 5.22195 16.6759 5.22195 17.2148C5.22195 18.2939 5.55278 19.1146 6.21599 19.6276C6.87765 20.1677 8.10421 20.4236 9.92221 20.4236C11.7761 20.4236 13.0339 20.1418 13.6986 19.5769C14.3587 19.012 14.6896 18.2173 14.6896 17.1913V11.953H14.6911ZM9.92377 0.581299C13.1696 0.581299 15.5525 1.06954 17.074 2.07074C18.5971 3.04722 19.3586 4.30304 19.3586 5.79125V18.4731C19.3586 18.9861 19.2275 19.5509 18.9966 20.1665C18.7625 20.7845 18.3006 21.3482 17.5718 21.8599C16.8774 22.3753 15.9177 22.8116 14.6927 23.1454C13.4677 23.4791 11.8791 23.6583 9.92533 23.6583C7.97469 23.6583 6.38297 23.4791 5.15953 23.1454C3.93609 22.8116 2.97481 22.3753 2.28038 21.8599C1.63438 21.3988 1.145 20.8165 0.857199 20.1665C0.623122 19.5522 0.490479 18.9873 0.490479 18.4743V16.4472C0.490479 15.3682 0.854078 14.367 1.58284 13.4931C2.3116 12.5957 3.33685 11.9801 4.66173 11.5945C5.32338 11.4153 6.08491 11.236 6.94475 11.0049C7.80616 10.7725 8.59889 10.5414 9.39476 10.3374C10.1906 10.131 10.885 9.9246 11.4796 9.74413C11.8384 9.63043 12.2028 9.52816 12.572 9.43759L13.1681 9.20645C13.4021 9.10386 13.6315 8.94935 13.8641 8.74417C14.095 8.54022 14.2932 8.30908 14.4602 8.05198C14.6366 7.77358 14.7275 7.46611 14.7255 7.15461V6.33264C14.7279 6.03138 14.6481 5.73327 14.4914 5.45875C14.3603 5.14974 14.095 4.86792 13.7314 4.61206C13.3678 4.35496 12.87 4.14977 12.2755 3.99403C11.6793 3.842 10.8866 3.76413 9.99087 3.76413C8.13698 3.76413 6.91198 4.04842 6.25033 4.63678C5.68854 5.15097 5.35771 5.79248 5.29217 6.51063C5.29217 6.66513 5.12676 6.76773 4.92701 6.76773L0.889969 6.81964C0.794073 6.81997 0.701893 6.79028 0.633501 6.73704C0.565109 6.68379 0.526044 6.6113 0.52481 6.53535V5.79372C0.52481 5.0731 0.691784 4.40564 1.05538 3.76413C1.42054 3.12138 1.98389 2.5837 2.74386 2.12018C3.50539 1.65913 4.49943 1.27472 5.6901 1.01762C6.84956 0.708612 8.27275 0.581299 9.92689 0.581299H9.92377Z" fill="#8C426D"/>
</svg>
