<svg width="42" height="43" viewBox="0 0 42 43" fill="none" xmlns="http://www.w3.org/2000/svg">
<path d="M26.67 3.5835H19.8552C16.7678 3.58348 14.3223 3.58344 12.4084 3.84795C10.4388 4.12015 8.84453 4.69368 7.58728 5.98605C6.33005 7.2784 5.77208 8.91714 5.50727 10.9418C5.24995 12.9091 5.24998 15.4229 5.25 18.5964V29.0554C5.25 31.7575 6.85991 34.073 9.14755 35.0437C9.02981 33.4144 9.0299 31.128 9.03 29.2258V20.4209V20.2503C9.02988 17.9539 9.02976 15.9755 9.23699 14.391C9.45908 12.693 9.95993 11.0654 11.2443 9.74515C12.5286 8.42492 14.1121 7.9101 15.764 7.68181C17.3053 7.4688 19.2302 7.4689 21.4641 7.46903L21.63 7.46905H26.67L26.8359 7.46903C29.0698 7.4689 30.9904 7.4688 32.5318 7.68181C31.6097 5.28162 29.3328 3.5835 26.67 3.5835Z" fill="#fff0f6"/>
<path d="M11.5502 20.4205C11.5502 15.5361 11.5502 13.0939 13.0263 11.5765C14.5025 10.0591 16.8784 10.0591 21.6302 10.0591H26.6702C31.4219 10.0591 33.7977 10.0591 35.274 11.5765C36.7502 13.0939 36.7502 15.5361 36.7502 20.4205V29.0551C36.7502 33.9396 36.7502 36.3818 35.274 37.8991C33.7977 39.4165 31.4219 39.4165 26.6702 39.4165H21.6302C16.8784 39.4165 14.5025 39.4165 13.0263 37.8991C11.5502 36.3818 11.5502 33.9396 11.5502 29.0551V20.4205Z" fill="#fff0f6"/>
</svg>
