<svg width="38" height="31" viewBox="0 0 38 31" fill="none" xmlns="http://www.w3.org/2000/svg">
<g clip-path="url(#clip0_435018_216)">
<g filter="url(#filter0_d_435018_216)">
<path d="M29.5487 0.418701H7.64194C3.70281 0.418701 0.509521 3.04244 0.509521 6.27898V24.2784C0.509521 27.5149 3.70281 30.1387 7.64194 30.1387H29.5487C33.4878 30.1387 36.6811 27.5149 36.6811 24.2784V6.27898C36.6811 3.04244 33.4878 0.418701 29.5487 0.418701Z" fill="#FFF0F6"/>
<path d="M29.5487 0.418701H7.64194C3.70281 0.418701 0.509521 3.04244 0.509521 6.27898V24.2784C0.509521 27.5149 3.70281 30.1387 7.64194 30.1387H29.5487C33.4878 30.1387 36.6811 27.5149 36.6811 24.2784V6.27898C36.6811 3.04244 33.4878 0.418701 29.5487 0.418701Z" stroke="#FFF0F6" stroke-width="21.9178"/>
</g>
<path d="M30.7239 9.80695C29.4956 8.07777 27.8295 6.70878 25.7251 5.69966C23.6205 4.69049 21.3228 4.18604 18.8305 4.18604C16.3385 4.18604 14.0401 4.69065 11.9358 5.69966C9.83128 6.70873 8.16523 8.07777 6.93693 9.80695C5.70881 11.5361 5.09473 13.4243 5.09473 15.4716C5.09473 17.9308 5.96797 20.1422 7.71489 22.1063C9.46162 24.0706 11.7181 25.4298 14.4843 26.1841C14.8062 26.2332 15.0446 26.1987 15.1996 26.0814C15.3546 25.9639 15.4321 25.8168 15.4321 25.6407C15.4321 25.6113 15.429 25.3469 15.423 24.8472C15.4169 24.3475 15.414 23.9115 15.414 23.5396L15.0026 23.598C14.7403 23.6375 14.4095 23.6542 14.01 23.6495C13.6107 23.6449 13.1962 23.6105 12.767 23.5466C12.3377 23.4833 11.9383 23.3363 11.5687 23.1061C11.1992 22.8759 10.9369 22.5745 10.7819 22.2025L10.603 21.8643C10.4838 21.6392 10.2962 21.3891 10.0398 21.115C9.78336 20.8406 9.52408 20.6546 9.26179 20.5566L9.13657 20.483C9.05313 20.434 8.9757 20.375 8.9041 20.3065C8.83256 20.238 8.779 20.1694 8.74323 20.1008C8.7074 20.032 8.7371 19.9757 8.83263 19.9315C8.92816 19.8873 9.1008 19.8658 9.35131 19.8658L9.70887 19.9097C9.94735 19.949 10.2423 20.0663 10.5942 20.2623C10.9459 20.4582 11.235 20.7129 11.4616 21.0262C11.7359 21.428 12.0665 21.7342 12.4542 21.9448C12.8416 22.1555 13.2322 22.2606 13.6256 22.2606C14.019 22.2606 14.3587 22.2361 14.645 22.1874C14.931 22.1384 15.1993 22.0647 15.4498 21.9669C15.5571 21.3102 15.8493 20.8057 16.326 20.4531C15.6465 20.3944 15.0355 20.3061 14.4928 20.1886C13.9505 20.0709 13.39 19.88 12.8118 19.6152C12.2333 19.3508 11.7534 19.0225 11.372 18.6308C10.9905 18.2389 10.6774 17.7244 10.4332 17.0878C10.1888 16.4509 10.0666 15.7162 10.0666 14.8835C10.0666 13.6979 10.5376 12.689 11.4796 11.8562C11.0383 10.9649 11.08 9.96563 11.6047 8.85862C11.9505 8.77035 12.4633 8.83659 13.1428 9.05693C13.8225 9.27738 14.3201 9.46622 14.6362 9.62279C14.9523 9.77931 15.2056 9.91195 15.3964 10.0195C16.5055 9.7649 17.65 9.63756 18.8304 9.63756C20.0107 9.63756 21.1555 9.7649 22.2646 10.0195L22.9442 9.66701C23.409 9.43179 23.9578 9.21623 24.5894 9.02029C25.2213 8.82444 25.7045 8.7705 26.0385 8.85877C26.5749 9.96584 26.6227 10.965 26.1813 11.8564C27.1232 12.6892 27.5945 13.6983 27.5945 14.8837C27.5945 15.7164 27.4718 16.4534 27.2278 17.0951C26.9835 17.737 26.6677 18.251 26.2804 18.6381C25.8925 19.0252 25.4096 19.351 24.8314 19.6153C24.253 19.8799 23.6924 20.0709 23.15 20.1885C22.6074 20.3062 21.9965 20.3946 21.3169 20.4534C21.9367 20.8941 22.2467 21.5897 22.2467 22.5399V25.6403C22.2467 25.8164 22.3212 25.9635 22.4704 26.081C22.6194 26.1983 22.8548 26.2328 23.1768 26.1837C25.9433 25.4295 28.1998 24.0702 29.9465 22.1059C31.6929 20.1418 32.5665 17.9304 32.5665 15.4712C32.5659 13.4241 31.9515 11.5361 30.7239 9.80695Z" fill="#2C1F26"/>
</g>
<defs>
<filter id="filter0_d_435018_216" x="-14.4495" y="-10.5403" width="66.0894" height="59.6379" filterUnits="userSpaceOnUse" color-interpolation-filters="sRGB">
<feFlood flood-opacity="0" result="BackgroundImageFix"/>
<feColorMatrix in="SourceAlpha" type="matrix" values="0 0 0 0 0 0 0 0 0 0 0 0 0 0 0 0 0 0 127 0" result="hardAlpha"/>
<feOffset dy="4"/>
<feGaussianBlur stdDeviation="2"/>
<feComposite in2="hardAlpha" operator="out"/>
<feColorMatrix type="matrix" values="0 0 0 0 0.129412 0 0 0 0 0.152941 0 0 0 0 0.219608 0 0 0 0.25 0"/>
<feBlend mode="normal" in2="BackgroundImageFix" result="effect1_dropShadow_435018_216"/>
<feBlend mode="normal" in="SourceGraphic" in2="effect1_dropShadow_435018_216" result="shape"/>
</filter>
<clipPath id="clip0_435018_216">
<rect width="37.1905" height="30.5571" rx="7" fill="white"/>
</clipPath>
</defs>
</svg>
