<svg width="33" height="31" viewBox="0 0 33 31" fill="none" xmlns="http://www.w3.org/2000/svg">
<g clip-path="url(#clip0_435020_132)">
<g filter="url(#filter0_d_435020_132)">
<path d="M26.2192 0.424561H6.78079C3.28551 0.424561 0.452026 3.08632 0.452026 6.36977V24.63C0.452026 27.9135 3.28551 30.5752 6.78079 30.5752H26.2192C29.7144 30.5752 32.5479 27.9135 32.5479 24.63V6.36977C32.5479 3.08632 29.7144 0.424561 26.2192 0.424561Z" fill="#8C426D"/>
<path d="M26.2192 0.424561H6.78079C3.28551 0.424561 0.452026 3.08632 0.452026 6.36977V24.63C0.452026 27.9135 3.28551 30.5752 6.78079 30.5752H26.2192C29.7144 30.5752 32.5479 27.9135 32.5479 24.63V6.36977C32.5479 3.08632 29.7144 0.424561 26.2192 0.424561Z" stroke="#8C426D" stroke-width="21.9178"/>
</g>
<path d="M27.2619 9.94896C26.172 8.19472 24.6936 6.80589 22.8264 5.78214C20.9588 4.75835 18.9201 4.24658 16.7086 4.24658C14.4974 4.24658 12.4579 4.75851 10.5908 5.78214C8.72336 6.80583 7.24504 8.19472 6.15514 9.94896C5.0654 11.7031 4.52051 13.6187 4.52051 15.6957C4.52051 18.1905 5.29536 20.434 6.84544 22.4266C8.39536 24.4194 10.3976 25.7983 12.8521 26.5635C13.1378 26.6133 13.3493 26.5783 13.4868 26.4593C13.6244 26.3401 13.6931 26.1909 13.6931 26.0122C13.6931 25.9824 13.6903 25.7142 13.6851 25.2072C13.6796 24.7002 13.6771 24.258 13.6771 23.8806L13.312 23.9399C13.0793 23.98 12.7857 23.9969 12.4312 23.9921C12.0769 23.9875 11.7091 23.9526 11.3283 23.8877C10.9474 23.8235 10.593 23.6744 10.265 23.4408C9.93716 23.2073 9.70443 22.9015 9.56686 22.5241L9.40816 22.1811C9.30239 21.9527 9.13586 21.699 8.90835 21.4209C8.68084 21.1425 8.45078 20.9538 8.21804 20.8544L8.10693 20.7797C8.03289 20.7301 7.96419 20.6702 7.90066 20.6007C7.83718 20.5312 7.78966 20.4616 7.75792 20.392C7.72612 20.3222 7.75247 20.2651 7.83724 20.2202C7.922 20.1754 8.07519 20.1536 8.29748 20.1536L8.61475 20.1981C8.82636 20.238 9.08811 20.357 9.40033 20.5559C9.71238 20.7546 9.9689 21.013 10.17 21.3308C10.4134 21.7384 10.7067 22.049 11.0507 22.2627C11.3945 22.4765 11.741 22.5831 12.0901 22.5831C12.4392 22.5831 12.7407 22.5583 12.9947 22.5088C13.2484 22.4591 13.4865 22.3844 13.7088 22.2851C13.804 21.6189 14.0633 21.1072 14.4863 20.7494C13.8833 20.6899 13.3412 20.6002 12.8597 20.481C12.3784 20.3617 11.8811 20.1679 11.3681 19.8994C10.8548 19.6311 10.4289 19.298 10.0905 18.9007C9.75196 18.5031 9.47414 17.9812 9.25742 17.3353C9.04058 16.6892 8.93214 15.9439 8.93214 15.0991C8.93214 13.8963 9.35013 12.8728 10.186 12.0279C9.79442 11.1237 9.83139 10.1099 10.297 8.98689C10.6038 8.89734 11.0588 8.96454 11.6618 9.18807C12.2649 9.41171 12.7064 9.60329 12.9869 9.76213C13.2674 9.92092 13.4921 10.0555 13.6614 10.1646C14.6456 9.9063 15.6611 9.77712 16.7085 9.77712C17.7558 9.77712 18.7716 9.9063 19.7558 10.1646L20.3588 9.80699C20.7712 9.56836 21.2582 9.34968 21.8186 9.15089C22.3793 8.95221 22.8081 8.89749 23.1045 8.98704C23.5804 10.1102 23.6228 11.1238 23.2311 12.0281C24.0669 12.8729 24.4851 13.8967 24.4851 15.0993C24.4851 15.944 24.3762 16.6917 24.1597 17.3428C23.943 17.9939 23.6628 18.5154 23.319 18.9081C22.9749 19.3009 22.5463 19.6313 22.0333 19.8995C21.5201 20.1679 21.0227 20.3616 20.5414 20.481C20.0599 20.6003 19.5178 20.6901 18.9148 20.7497C19.4648 21.1968 19.7398 21.9025 19.7398 22.8665V26.0118C19.7398 26.1905 19.806 26.3396 19.9384 26.4589C20.0706 26.5779 20.2794 26.6129 20.5651 26.563C23.0199 25.7979 25.0222 24.4189 26.5721 22.4262C28.1217 20.4336 28.8969 18.1901 28.8969 15.6953C28.8963 13.6186 28.3511 11.7031 27.2619 9.94896Z" fill="#fff0f6"/>
</g>
<defs>
<filter id="filter0_d_435020_132" x="-14.5069" y="-10.5344" width="62.0137" height="60.0686" filterUnits="userSpaceOnUse" color-interpolation-filters="sRGB">
<feFlood flood-opacity="0" result="BackgroundImageFix"/>
<feColorMatrix in="SourceAlpha" type="matrix" values="0 0 0 0 0 0 0 0 0 0 0 0 0 0 0 0 0 0 127 0" result="hardAlpha"/>
<feOffset dy="4"/>
<feGaussianBlur stdDeviation="2"/>
<feComposite in2="hardAlpha" operator="out"/>
<feColorMatrix type="matrix" values="0 0 0 0 0.129412 0 0 0 0 0.152941 0 0 0 0 0.219608 0 0 0 0.25 0"/>
<feBlend mode="normal" in2="BackgroundImageFix" result="effect1_dropShadow_435020_132"/>
<feBlend mode="normal" in="SourceGraphic" in2="effect1_dropShadow_435020_132" result="shape"/>
</filter>
<clipPath id="clip0_435020_132">
<rect width="33" height="31" rx="5" fill="white"/>
</clipPath>
</defs>
</svg>

