<svg width="33" height="31" viewBox="0 0 33 31" fill="none" xmlns="http://www.w3.org/2000/svg">
<path d="M30.4219 0H2.57812C1.15371 0 0 1.08379 0 2.42188V28.5781C0 29.9162 1.15371 31 2.57812 31H30.4219C31.8463 31 33 29.9162 33 28.5781V2.42188C33 1.08379 31.8463 0 30.4219 0ZM11.8852 21.9846H8.66895V12.3152H11.8852V21.9846ZM10.19 11.1043H10.1643C8.99766 11.1043 8.24355 10.3656 8.24355 9.42715C8.24355 8.47051 9.02344 7.75 10.2094 7.75C11.3953 7.75 12.1236 8.47051 12.1494 9.42715C12.1559 10.3596 11.4018 11.1043 10.19 11.1043ZM24.75 21.9846H21.102V16.9834C21.102 15.6756 20.5348 14.7795 19.2779 14.7795C18.3176 14.7795 17.7826 15.385 17.5377 15.9662C17.4475 16.1721 17.4604 16.4627 17.4604 16.7594V21.9846H13.8445C13.8445 21.9846 13.8896 13.1205 13.8445 12.3152H17.4604V13.835C17.673 13.1689 18.8268 12.2244 20.6701 12.2244C22.9582 12.2244 24.75 13.617 24.75 16.608V21.9846Z" fill="#8C426D"/>
</svg>
