<svg width="41" height="43" viewBox="0 0 41 43" fill="none" xmlns="http://www.w3.org/2000/svg">
<path fill-rule="evenodd" clip-rule="evenodd" d="M6.6625 18.2457V13.988C6.6625 6.26262 12.8578 0 20.5 0C28.1422 0 34.3375 6.26262 34.3375 13.988V18.2457C36.6228 18.4183 38.1109 18.8537 39.1987 19.9535C41 21.7744 41 24.705 41 30.5663C41 36.4275 41 39.3582 39.1987 41.1791C37.3973 43 34.4982 43 28.7 43H12.3C6.50172 43 3.60259 43 1.80129 41.1791C0 39.3582 0 36.4275 0 30.5663C0 24.705 0 21.7744 1.80129 19.9535C2.88909 18.8537 4.37726 18.4183 6.6625 18.2457ZM9.7375 13.988C9.7375 7.97937 14.556 3.10843 20.5 3.10843C26.444 3.10843 31.2625 7.97937 31.2625 13.988V18.14C30.4774 18.1325 29.6256 18.1325 28.7 18.1325H12.3C11.3744 18.1325 10.5227 18.1325 9.7375 18.14V13.988ZM24.6 30.5663C24.6 32.8553 22.7644 34.7108 20.5 34.7108C18.2356 34.7108 16.4 32.8553 16.4 30.5663C16.4 28.2772 18.2356 26.4217 20.5 26.4217C22.7644 26.4217 24.6 28.2772 24.6 30.5663Z" fill="#34113f"/>
</svg>
