<svg width="44" height="42" viewBox="0 0 44 42" fill="none" xmlns="http://www.w3.org/2000/svg">
<path d="M36.4835 4.03759C36.1885 3.3208 35.1296 3.3208 34.8346 4.03759L34.0455 5.95433C33.9555 6.17316 33.7748 6.3464 33.5463 6.43271L31.5456 7.18865C30.7974 7.47135 30.7974 8.48575 31.5456 8.76845L33.5463 9.52442C33.7748 9.61073 33.9555 9.78394 34.0455 10.0028L34.8346 11.9195C35.1296 12.6363 36.1885 12.6363 36.4835 11.9195L37.2726 10.0028C37.3626 9.78394 37.5434 9.61073 37.7718 9.52442L39.7725 8.76845C40.5207 8.48575 40.5207 7.47135 39.7725 7.18865L37.7718 6.43271C37.5434 6.3464 37.3626 6.17316 37.2726 5.95433L36.4835 4.03759Z" fill="#8C426D"/>
<path d="M29.3935 14.227C29.0983 13.5103 28.0396 13.5103 27.7444 14.227L27.4567 14.9259C27.3667 15.1447 27.186 15.3179 26.9575 15.4043L26.228 15.6799C25.4799 15.9626 25.4799 16.977 26.228 17.2597L26.9575 17.5353C27.186 17.6216 27.3667 17.7948 27.4567 18.0137L27.7444 18.7125C28.0396 19.4293 29.0983 19.4293 29.3935 18.7125L29.6811 18.0137C29.7711 17.7948 29.9519 17.6216 30.1803 17.5353L30.9098 17.2597C31.658 16.977 31.658 15.9626 30.9098 15.6799L30.1803 15.4043C29.9519 15.3179 29.7711 15.1447 29.6811 14.9259L29.3935 14.227Z" fill="#8C426D"/>
<path d="M22 38.5C32.1251 38.5 40.3333 30.6649 40.3333 21C40.3333 20.1903 39.0619 20.0564 38.6232 20.7494C36.5363 24.0461 32.7461 26.25 28.4167 26.25C21.8352 26.25 16.5 21.1573 16.5 14.875C16.5 10.7423 18.8089 7.12434 22.2625 5.13233C22.9885 4.71357 22.8483 3.5 22 3.5C11.8748 3.5 3.66666 11.335 3.66666 21C3.66666 30.6649 11.8748 38.5 22 38.5Z" fill="#8C426D"/>
</svg>
