<svg width="40" height="43" viewBox="0 0 40 43" fill="none" xmlns="http://www.w3.org/2000/svg">
<g clip-path="url(#clip0_435020_118)">
<path d="M20.0019 32.2538C25.5251 32.2538 30.0025 27.4405 30.0025 21.5031C30.0025 15.5657 25.5251 10.7524 20.0019 10.7524C14.4787 10.7524 10.0013 15.5657 10.0013 21.5031C10.0013 27.4405 14.4787 32.2538 20.0019 32.2538Z" fill="#8C426D"/>
<path fill-rule="evenodd" clip-rule="evenodd" d="M7.50063 21.498C7.50063 20.0125 6.3825 18.8105 5.00063 18.8105H2.5C1.11812 18.8105 0 20.0125 0 21.498C0 22.9836 1.11812 24.1855 2.5 24.1855H5C6.3825 24.1855 7.50063 22.9836 7.50063 21.498Z" fill="#8C426D"/>
<path fill-rule="evenodd" clip-rule="evenodd" d="M7.6275 30.9995L5.8575 32.9029C4.88063 33.9524 4.88063 35.6536 5.8575 36.7031C6.83375 37.7525 8.41625 37.7525 9.39313 36.7031L11.1638 34.8003C12.14 33.7508 12.14 32.049 11.1638 30.9995C10.1863 29.9494 8.60438 29.9494 7.6275 30.9995Z" fill="#8C426D"/>
<path fill-rule="evenodd" clip-rule="evenodd" d="M20.0019 34.9365C18.62 34.9365 17.5019 36.1385 17.5019 37.624V40.3122C17.5019 41.7977 18.62 42.9997 20.0019 42.9997C21.3837 42.9997 22.5019 41.7977 22.5019 40.3122L22.4994 37.624C22.5019 36.1385 21.3812 34.9365 20.0019 34.9365Z" fill="#8C426D"/>
<path fill-rule="evenodd" clip-rule="evenodd" d="M32.3737 31.0023C31.3994 29.9502 29.8169 29.9502 28.8406 30.9997C27.8644 32.0491 27.8644 33.751 28.8406 34.8005L30.6087 36.7005C31.585 37.7554 33.1675 37.75 34.1437 36.7005C35.12 35.651 35.1225 33.9525 34.1437 32.9004L32.3737 31.0023Z" fill="#8C426D"/>
<path fill-rule="evenodd" clip-rule="evenodd" d="M37.5038 18.8105L34.9981 18.8159C33.6213 18.8105 32.5031 20.0125 32.5031 21.498C32.4981 22.9836 33.6213 24.1855 34.9981 24.1855H37.4988C38.8856 24.1909 39.9988 22.9836 39.9988 21.498C40.0013 20.0152 38.8856 18.8105 37.5038 18.8105Z" fill="#8C426D"/>
<path fill-rule="evenodd" clip-rule="evenodd" d="M32.3737 11.9988L34.1412 10.0981C35.125 9.04592 35.1175 7.34742 34.1412 6.29728C33.1669 5.24445 31.585 5.24445 30.6087 6.29459L28.8406 8.20003C27.8644 9.2448 27.8644 10.9453 28.8406 11.9955C29.8119 13.0516 31.3994 13.0463 32.3737 11.9988Z" fill="#8C426D"/>
<path fill-rule="evenodd" clip-rule="evenodd" d="M20.0019 8.05861C21.3812 8.06936 22.5019 6.85662 22.5019 5.37648V2.68898C22.5019 1.19809 21.3837 0.0014828 20.0019 0.0014828C18.62 -0.0038922 17.5019 1.19809 17.5019 2.68428L17.5069 5.37715C17.5019 6.85662 18.62 8.05861 20.0019 8.05861Z" fill="#8C426D"/>
<path fill-rule="evenodd" clip-rule="evenodd" d="M7.63251 11.9961C8.60439 13.0455 10.1819 13.0455 11.1613 11.9934C12.145 10.9513 12.14 9.24541 11.1663 8.19796L9.39814 6.29789C8.41689 5.24238 6.83939 5.25044 5.86251 6.29789C4.87814 7.34535 4.87814 9.04586 5.85501 10.096L7.63251 11.9961Z" fill="#8C426D"/>
</g>
<defs>
<clipPath id="clip0_435020_118">
<rect width="40" height="43" fill="white"/>
</clipPath>
</defs>
</svg>
