<svg width="45" height="45" viewBox="0 0 40 43" fill="none" xmlns="http://www.w3.org/2000/svg">
<g clip-path="url(#clip0_435020_36)">
<path d="M20.0018 32.254C25.525 32.254 30.0025 27.4408 30.0025 21.5034C30.0025 15.5659 25.525 10.7527 20.0018 10.7527C14.4787 10.7527 10.0012 15.5659 10.0012 21.5034C10.0012 27.4408 14.4787 32.254 20.0018 32.254Z" fill="#FFF0F6"/>
<path fill-rule="evenodd" clip-rule="evenodd" d="M7.50063 21.4978C7.50063 20.0123 6.3825 18.8103 5.00063 18.8103H2.5C1.11812 18.8103 0 20.0123 0 21.4978C0 22.9833 1.11812 24.1853 2.5 24.1853H5C6.3825 24.1853 7.50063 22.9833 7.50063 21.4978Z" fill="#FFF0F6"/>
<path fill-rule="evenodd" clip-rule="evenodd" d="M7.62753 30.9995L5.85753 32.9029C4.88066 33.9524 4.88066 35.6536 5.85753 36.7031C6.83378 37.7525 8.41628 37.7525 9.39316 36.7031L11.1638 34.8003C12.14 33.7508 12.14 32.049 11.1638 30.9995C10.1863 29.9494 8.60441 29.9494 7.62753 30.9995Z" fill="#FFF0F6"/>
<path fill-rule="evenodd" clip-rule="evenodd" d="M20.0018 34.9365C18.62 34.9365 17.5018 36.1385 17.5018 37.624V40.3122C17.5018 41.7977 18.62 42.9997 20.0018 42.9997C21.3837 42.9997 22.5018 41.7977 22.5018 40.3122L22.4993 37.624C22.5018 36.1385 21.3812 34.9365 20.0018 34.9365Z" fill="#FFF0F6"/>
<path fill-rule="evenodd" clip-rule="evenodd" d="M32.3737 31.0023C31.3993 29.9502 29.8168 29.9502 28.8406 30.9997C27.8643 32.0491 27.8643 33.751 28.8406 34.8005L30.6087 36.7005C31.585 37.7554 33.1675 37.75 34.1437 36.7005C35.12 35.651 35.1225 33.9525 34.1437 32.9004L32.3737 31.0023Z" fill="#FFF0F6"/>
<path fill-rule="evenodd" clip-rule="evenodd" d="M37.5037 18.8103L34.9981 18.8157C33.6212 18.8103 32.5031 20.0123 32.5031 21.4978C32.4981 22.9833 33.6212 24.1853 34.9981 24.1853H37.4987C38.8856 24.1907 39.9987 22.9833 39.9987 21.4978C40.0012 20.015 38.8856 18.8103 37.5037 18.8103Z" fill="#FFF0F6"/>
<path fill-rule="evenodd" clip-rule="evenodd" d="M32.3737 11.9988L34.1412 10.0981C35.125 9.04592 35.1175 7.34742 34.1412 6.29728C33.1668 5.24445 31.585 5.24445 30.6087 6.29459L28.8406 8.20003C27.8643 9.2448 27.8643 10.9453 28.8406 11.9955C29.8118 13.0516 31.3993 13.0463 32.3737 11.9988Z" fill="#FFF0F6"/>
<path fill-rule="evenodd" clip-rule="evenodd" d="M20.0018 8.05861C21.3812 8.06936 22.5018 6.85662 22.5018 5.37648V2.68898C22.5018 1.19809 21.3837 0.0014828 20.0018 0.0014828C18.62 -0.0038922 17.5018 1.19809 17.5018 2.68428L17.5068 5.37715C17.5018 6.85662 18.62 8.05861 20.0018 8.05861Z" fill="#FFF0F6"/>
<path fill-rule="evenodd" clip-rule="evenodd" d="M7.63251 11.9963C8.60439 13.0458 10.1819 13.0458 11.1613 11.9936C12.145 10.9515 12.14 9.24565 11.1663 8.1982L9.39814 6.29814C8.41689 5.24262 6.83939 5.25068 5.86251 6.29814C4.87814 7.34559 4.87814 9.04611 5.85501 10.0962L7.63251 11.9963Z" fill="#FFF0F6"/>
</g>
<defs>
<clipPath id="clip0_435020_36">
<rect width="40" height="43" fill="white"/>
</clipPath>
</defs>
</svg>
