<svg width="39" height="43" viewBox="0 0 39 43" fill="none" xmlns="http://www.w3.org/2000/svg">
<path fill-rule="evenodd" clip-rule="evenodd" d="M9.2625 13.988C9.2625 7.97937 13.846 3.10843 19.5 3.10843C24.2683 3.10843 28.2785 6.57417 29.415 11.2669C29.6164 12.0982 30.4138 12.5986 31.1959 12.3847C31.9782 12.1707 32.449 11.3234 32.2477 10.4921C30.7866 4.45936 25.6353 0 19.5 0C12.2306 0 6.3375 6.26262 6.3375 13.988V18.2457C4.16374 18.4183 2.74815 18.8537 1.71343 19.9535C0 21.7744 0 24.705 0 30.5663C0 36.4275 0 39.3582 1.71343 41.1791C3.42685 43 6.18456 43 11.7 43H27.3C32.8154 43 35.5731 43 37.2865 41.1791C39 39.3582 39 36.4275 39 30.5663C39 24.705 39 21.7744 37.2865 19.9535C35.5731 18.1325 32.8154 18.1325 27.3 18.1325H11.7C10.8196 18.1325 10.0094 18.1325 9.2625 18.14V13.988ZM23.4 30.5663C23.4 32.8553 21.654 34.7108 19.5 34.7108C17.346 34.7108 15.6 32.8553 15.6 30.5663C15.6 28.2772 17.346 26.4217 19.5 26.4217C21.654 26.4217 23.4 28.2772 23.4 30.5663Z" fill="#34113f"/>
</svg>
